<svg width="245" height="32" viewBox="0 0 245 32" fill="none" xmlns="http://www.w3.org/2000/svg">
<path d="M99.835 12.9999V1.34399H102.832V5.95639H103.664L107.228 1.34399H110.491L105.996 6.78899L110.658 12.9999H107.161L103.664 8.05449H102.832V12.9999H99.835ZM112.323 13.2164C112.234 13.2164 112.107 13.2108 111.94 13.1997C111.785 13.1997 111.663 13.1886 111.574 13.1664V10.5355C111.607 10.5466 111.69 10.5522 111.824 10.5522C112.046 10.5522 112.234 10.5244 112.39 10.4689C112.556 10.4023 112.695 10.2691 112.806 10.0693C112.917 9.85839 113.011 9.55309 113.089 9.15349C113.178 8.75379 113.239 8.22099 113.272 7.55489C113.306 6.87779 113.322 6.02859 113.322 5.00729V1.34399H122.147V12.9999H119.133V3.79179H116.12V5.34029C116.12 6.72789 116.064 7.89349 115.953 8.83709C115.842 9.76959 115.676 10.5244 115.454 11.1017C115.243 11.6789 114.982 12.1229 114.671 12.4338C114.36 12.7335 114.005 12.9388 113.605 13.0499C113.217 13.1609 112.789 13.2164 112.323 13.2164ZM126.818 13.2164C126.695 13.2164 126.573 13.2108 126.451 13.1997C126.34 13.1997 126.24 13.1831 126.151 13.1498V10.6687C126.24 10.6798 126.329 10.6909 126.418 10.702C126.507 10.7131 126.612 10.7187 126.734 10.7187C127.056 10.7187 127.306 10.6965 127.484 10.6521C127.661 10.5966 127.8 10.5078 127.9 10.3857C128 10.2524 128.083 10.0748 128.15 9.85279L123.471 1.34399H126.518L129.615 7.25519L132.046 1.34399H134.977L131.08 10.1525C130.825 10.7298 130.57 11.2127 130.314 11.6012C130.07 11.9897 129.787 12.3061 129.465 12.5503C129.154 12.7834 128.782 12.9499 128.349 13.0499C127.928 13.1609 127.417 13.2164 126.818 13.2164ZM136.308 12.9999V1.34399H144.883V3.80839H139.305V5.54009H141.22C142.841 5.54009 144.034 5.87319 144.8 6.53919C145.577 7.19419 145.966 8.07669 145.966 9.18679C145.966 10.3857 145.577 11.3237 144.8 12.0008C144.034 12.6669 142.841 12.9999 141.22 12.9999H136.308ZM139.305 10.5355H140.887C141.609 10.5355 142.119 10.419 142.419 10.1858C142.719 9.94159 142.869 9.60859 142.869 9.18679C142.869 8.76489 142.719 8.43749 142.419 8.20429C142.119 7.96009 141.609 7.83799 140.887 7.83799H139.305V10.5355ZM105.896 30.9999V26.3542C105.607 26.5429 105.224 26.715 104.747 26.8704C104.281 27.0147 103.726 27.0869 103.082 27.0869C101.872 27.0869 100.956 26.7871 100.334 26.1877C99.724 25.5771 99.418 24.6003 99.418 23.2571V19.344H102.416V22.7575C102.416 23.4125 102.554 23.8843 102.832 24.1729C103.109 24.4504 103.498 24.5892 103.997 24.5892C104.453 24.5892 104.836 24.5392 105.146 24.4393C105.457 24.3283 105.707 24.2117 105.896 24.0896V19.344H108.91V30.9999H105.896ZM111.234 30.9999V19.344H119.726V21.6419H114.231V23.9231H119.226V26.0878H114.231V28.702H119.726V30.9999H111.234ZM124.713 30.9999V21.8084H121.133V19.344H131.291V21.8084H127.711V30.9999H124.713ZM132.796 30.9999V19.344H135.793V23.2071H137.208C138.829 23.2071 140.022 23.5568 140.788 24.2561C141.565 24.9555 141.954 25.9046 141.954 27.1035C141.954 28.3024 141.565 29.2515 140.788 29.9509C140.022 30.6502 138.829 30.9999 137.208 30.9999H132.796ZM135.793 28.5355H136.875C137.575 28.5355 138.08 28.4023 138.391 28.1359C138.701 27.8695 138.857 27.5253 138.857 27.1035C138.857 26.6817 138.701 26.3375 138.391 26.0711C138.08 25.8047 137.575 25.6715 136.875 25.6715H135.793V28.5355ZM142.786 30.9999V19.344H145.784V30.9999H142.786ZM148.114 30.9999V19.344H152.859C153.947 19.344 154.841 19.505 155.54 19.8269C156.239 20.1377 156.756 20.5929 157.089 21.1923C157.433 21.7806 157.605 22.4911 157.605 23.3237C157.605 24.1451 157.433 24.8556 157.089 25.455C156.756 26.0545 156.239 26.5152 155.54 26.8371C154.841 27.1479 153.947 27.3033 152.859 27.3033H151.111V30.9999H148.114ZM151.111 24.8389H152.526C153.292 24.8389 153.83 24.7113 154.141 24.456C154.452 24.2006 154.608 23.8232 154.608 23.3237C154.608 22.8241 154.452 22.4467 154.141 22.1914C153.83 21.9361 153.292 21.8084 152.526 21.8084H151.111V24.8389ZM159.269 30.9999V19.344H167.761V21.6419H162.266V23.9231H167.261V26.0878H162.266V28.702H167.761V30.9999H159.269ZM168.922 30.9999L172.719 24.9222L169.089 19.344H172.403L174.684 22.8741L176.998 19.344H180.245L176.632 24.8889L180.412 30.9999H177.065L174.634 26.9203L172.203 30.9999H168.922ZM186.152 30.9999V19.344H189.149V23.9564H189.982L193.545 19.344H196.809L192.313 24.789L196.975 30.9999H193.479L189.982 26.0545H189.149V30.9999H186.152ZM203.479 31.2164C202.724 31.2164 202.003 31.1054 201.314 30.8833C200.626 30.6613 200.021 30.3116 199.499 29.8343C198.978 29.357 198.567 28.7409 198.267 27.986C197.967 27.2201 197.818 26.3098 197.818 25.2552V24.9222C197.818 23.9009 197.967 23.0239 198.267 22.2913C198.567 21.5586 198.978 20.9592 199.499 20.493C200.021 20.0267 200.626 19.6826 201.314 19.4606C202.003 19.2386 202.724 19.1275 203.479 19.1275C204.256 19.1275 204.983 19.2386 205.66 19.4606C206.337 19.6826 206.937 20.0267 207.459 20.493C207.98 20.9592 208.391 21.5586 208.691 22.2913C208.991 23.0239 209.14 23.9009 209.14 24.9222V25.2552C209.14 26.3098 208.991 27.2201 208.691 27.986C208.391 28.7409 207.98 29.357 207.459 29.8343C206.937 30.3116 206.337 30.6613 205.66 30.8833C204.983 31.1054 204.256 31.2164 203.479 31.2164ZM203.462 28.7187C203.918 28.7187 204.339 28.6188 204.728 28.419C205.116 28.208 205.427 27.8584 205.66 27.3699C205.905 26.8704 206.027 26.1655 206.027 25.2552V24.9222C206.027 24.0563 205.905 23.3847 205.66 22.9074C205.427 22.43 205.116 22.097 204.728 21.9083C204.339 21.7196 203.918 21.6252 203.462 21.6252C203.029 21.6252 202.619 21.7196 202.23 21.9083C201.842 22.097 201.525 22.43 201.281 22.9074C201.037 23.3847 200.915 24.0563 200.915 24.9222V25.2552C200.915 26.1655 201.037 26.8704 201.281 27.3699C201.525 27.8584 201.842 28.208 202.23 28.419C202.619 28.6188 203.029 28.7187 203.462 28.7187ZM211.048 30.9999V19.344H214.045V23.7733H218.374V19.344H221.371V30.9999H218.374V26.2376H214.045V30.9999H211.048ZM223.699 30.9999V19.344H232.191V21.6419H226.696V23.9231H231.691V26.0878H226.696V28.702H232.191V30.9999H223.699ZM234.106 30.9999V19.344H237.103V26.3375L241.682 19.344H244.429V30.9999H241.432V24.0064L236.853 30.9999H234.106ZM239.268 18.6946C238.49 18.6946 237.852 18.5892 237.353 18.3782C236.864 18.1562 236.503 17.8343 236.27 17.4125C236.048 16.9906 235.937 16.4633 235.937 15.8306H238.368C238.368 16.2968 238.435 16.6132 238.568 16.7797C238.712 16.9351 238.946 17.0128 239.268 17.0128C239.589 17.0128 239.817 16.9351 239.95 16.7797C240.095 16.6132 240.167 16.2968 240.167 15.8306H242.598C242.598 16.4633 242.481 16.9906 242.248 17.4125C242.026 17.8343 241.671 18.1562 241.182 18.3782C240.694 18.5892 240.056 18.6946 239.268 18.6946Z" fill="#595653"/>
<path d="M21.3163 29.9437H20.7534C20.7534 29.9377 20.7506 29.9318 20.7495 29.9261L20.7341 29.8573C20.7242 29.812 20.7135 29.7671 20.7025 29.7226C20.6978 29.7016 20.6926 29.6806 20.6875 29.6597C20.6729 29.6009 20.6575 29.5422 20.6417 29.4834L20.637 29.4666C20.6196 29.4029 20.6014 29.3396 20.5825 29.2765L20.5635 29.2155C20.5505 29.172 20.5367 29.129 20.5241 29.086C20.5166 29.0624 20.5087 29.0392 20.5012 29.016C20.4874 28.9744 20.4731 28.9329 20.4585 28.8917C20.451 28.87 20.4431 28.8479 20.4356 28.8266C20.4172 28.775 20.3983 28.7237 20.3788 28.6728C20.3745 28.6619 20.3709 28.6515 20.3666 28.6406C20.3437 28.5807 20.3196 28.5212 20.2951 28.4617C20.2864 28.44 20.2773 28.4187 20.2683 28.3974C20.2517 28.3599 20.2351 28.3188 20.2181 28.2798L20.1862 28.2076C20.1696 28.1702 20.1526 28.1328 20.1352 28.0953C20.1246 28.0721 20.1135 28.0486 20.1025 28.0254C20.0823 27.9823 20.063 27.9397 20.0405 27.8974C20.0322 27.8813 20.0247 27.8648 20.0164 27.8483C19.9884 27.7926 19.9596 27.7361 19.9304 27.6822L19.8909 27.6122L19.8352 27.5108L19.7918 27.4359C19.7736 27.4045 19.7555 27.373 19.7369 27.3416C19.7223 27.3162 19.7073 27.2907 19.6923 27.2668C19.6718 27.2327 19.6529 27.1994 19.6304 27.1657L19.5735 27.0744C19.5467 27.0325 19.5198 26.9902 19.4922 26.9487C19.4748 26.9225 19.4575 26.8966 19.4397 26.8708C19.4219 26.845 19.4026 26.8154 19.3836 26.7881C19.3647 26.7608 19.3442 26.7335 19.3268 26.7065C19.3094 26.6796 19.2905 26.6553 19.2719 26.6317C19.2534 26.6081 19.2324 26.5767 19.2123 26.5493L19.1567 26.4745C19.1172 26.4247 19.0809 26.3749 19.0422 26.3248L18.9881 26.2563C18.9652 26.2275 18.9415 26.199 18.9182 26.1706L18.8661 26.1077C18.842 26.0789 18.8176 26.0505 18.7931 26.0217L18.7418 25.9625L18.6652 25.8757L18.6198 25.8256C18.5254 25.7219 18.4287 25.6197 18.3297 25.5202L18.2862 25.4764L18.1954 25.3877L18.1508 25.345C18.1192 25.3147 18.0877 25.2848 18.0557 25.2552L18.0229 25.2253C17.9112 25.1224 17.7963 25.0221 17.6795 24.9259L17.6475 24.8993C17.6115 24.8694 17.5752 24.8398 17.5386 24.8106L17.5023 24.7814C17.4628 24.7515 17.4269 24.7219 17.3886 24.6923L17.3692 24.6777C17.2401 24.5789 17.1079 24.4828 16.9745 24.3903L16.9559 24.3772C16.9137 24.3484 16.8714 24.32 16.8288 24.2919L16.8008 24.2736C16.7574 24.2447 16.7135 24.2167 16.6697 24.1886L16.6622 24.1841C16.517 24.0921 16.3689 24.0039 16.2181 23.9195L16.2122 23.9158C16.1645 23.8892 16.1167 23.8634 16.0689 23.8376L16.048 23.8263C15.7938 23.6904 15.5327 23.5656 15.2648 23.4521L15.2482 23.445C15.1776 23.415 15.1065 23.3862 15.0347 23.3578H16.4475C16.6776 23.3578 16.8643 23.1067 16.8643 22.7964C16.8643 22.4862 16.6776 22.2351 16.4475 22.2351H16.0267C16.0527 22.1722 16.0816 22.1011 16.1127 22.021C16.5106 21.786 17.2109 21.2852 17.9057 20.3653L17.9112 20.3582C17.9639 20.2894 18.0156 20.2181 18.0664 20.1445L18.0766 20.1299C18.1271 20.0577 18.1777 19.9832 18.2274 19.9054L18.2408 19.8848C18.2645 19.8474 18.2882 19.81 18.3119 19.7725C18.3119 19.7725 18.3119 19.7695 18.3147 19.7677C18.3391 19.7302 18.3632 19.6891 18.3873 19.649L18.4027 19.6232C18.4232 19.5888 18.4441 19.5536 18.4643 19.5181C18.4682 19.5117 18.4722 19.5053 18.4757 19.4986C18.499 19.4582 18.5223 19.417 18.5452 19.3755L18.561 19.3466C18.5799 19.3122 18.5985 19.2774 18.617 19.2422C18.6226 19.2325 18.6281 19.2224 18.6332 19.2123C18.6553 19.17 18.6774 19.1273 18.6995 19.0839L18.7149 19.0536C18.7323 19.0184 18.7501 18.9825 18.7674 18.9466L18.7864 18.9092C18.8077 18.865 18.8286 18.8201 18.8495 18.7748L18.8626 18.746C18.8799 18.7086 18.8969 18.6711 18.9139 18.6337L18.934 18.5888C18.9537 18.5435 18.9735 18.4979 18.9924 18.4518C18.996 18.4436 18.9995 18.435 19.0027 18.4268C19.0205 18.3845 19.0378 18.3414 19.0552 18.298L19.0749 18.2486C19.0911 18.2074 19.1073 18.1659 19.1231 18.1244L19.1349 18.0929C19.1535 18.0435 19.1716 17.993 19.1898 17.9432L19.2088 17.8901C19.223 17.8504 19.2368 17.81 19.2506 17.7696C19.2557 17.7546 19.2609 17.7396 19.2656 17.7247C19.283 17.673 19.3003 17.6203 19.3173 17.5675C19.3228 17.5492 19.3288 17.5301 19.3343 17.5128L19.3738 17.3897C19.3789 17.3718 19.3844 17.3523 19.3896 17.3362C19.4057 17.2819 19.4219 17.2266 19.4373 17.1708C19.4424 17.1532 19.4472 17.1352 19.4519 17.1173C19.4638 17.0742 19.4756 17.0312 19.4871 16.9874C19.4922 16.9676 19.4973 16.9477 19.5028 16.9279C19.5175 16.8703 19.5321 16.8123 19.5463 16.7535L19.5581 16.7045C19.5692 16.6577 19.5802 16.6105 19.5909 16.563L19.6051 16.4994C19.6185 16.4384 19.6319 16.3774 19.6446 16.3153C19.6473 16.3033 19.6497 16.2909 19.6521 16.2778C19.6631 16.2243 19.6738 16.1701 19.684 16.1158C19.6884 16.0937 19.6923 16.0716 19.6967 16.0496C19.7069 15.9938 19.7168 15.9373 19.7267 15.8815C19.7286 15.8695 19.731 15.8579 19.733 15.8463C19.744 15.7805 19.7548 15.7141 19.7654 15.6472C19.7689 15.6248 19.7725 15.6023 19.7756 15.5795C19.7839 15.5252 19.7918 15.4706 19.7997 15.4152L19.8068 15.3643C19.8163 15.2955 19.8254 15.2262 19.834 15.1559C19.8368 15.1338 19.8392 15.1117 19.8419 15.0892C19.8488 15.0334 19.8551 14.9772 19.8609 14.9208C19.8633 14.9006 19.8656 14.8808 19.8676 14.8606C19.8752 14.7882 19.8823 14.7153 19.8889 14.6417C19.8889 14.6211 19.8925 14.6005 19.894 14.5795C19.8992 14.5204 19.9043 14.4609 19.9086 14.401C19.9086 14.3789 19.9122 14.3569 19.9138 14.3348C19.9193 14.2584 19.9244 14.1816 19.9292 14.1042C19.9292 14.0867 19.9292 14.0668 19.9319 14.0511C19.9355 13.9867 19.939 13.922 19.9418 13.8569C19.9418 13.8333 19.9418 13.8097 19.945 13.7861C19.9481 13.7057 19.9513 13.6248 19.9537 13.5429C19.9537 13.5316 19.9537 13.52 19.9537 13.5084C19.9558 13.4356 19.9573 13.362 19.9584 13.2876C19.9584 13.2633 19.9584 13.239 19.9584 13.2147C19.9584 13.1348 19.9584 13.0545 19.9584 12.9737V12.9549C19.9584 12.8689 19.9584 12.7817 19.9584 12.693V12.6181C19.9584 12.5433 19.9552 12.4647 19.9533 12.3868V12.3445C19.9505 12.2547 19.9469 12.1638 19.9434 12.0725C19.9434 12.0489 19.941 12.0249 19.9402 12.0014C19.9368 11.9245 19.9329 11.8472 19.9284 11.7693C19.9284 11.7502 19.9284 11.7319 19.9252 11.7113C19.9197 11.6178 19.9136 11.5235 19.9071 11.4284L19.9023 11.3622C19.8964 11.2828 19.8905 11.2031 19.8838 11.1226C19.8838 11.0994 19.8802 11.0762 19.8783 11.053C19.87 10.9557 19.8609 10.8573 19.8514 10.7585C19.8514 10.7398 19.8475 10.7211 19.8459 10.702C19.8376 10.6178 19.8285 10.5328 19.8194 10.4471C19.8167 10.4213 19.8139 10.3959 19.8108 10.37C19.7997 10.2682 19.7879 10.1661 19.7752 10.0624C19.7752 10.0497 19.7717 10.037 19.7701 10.025C19.7588 9.93216 19.7468 9.83886 19.7342 9.74506C19.7302 9.71736 19.7267 9.68966 19.7227 9.66196C19.708 9.55566 19.6929 9.44846 19.6773 9.34046C18.0983 -1.31574 6.9088 0.413659 6.9088 0.413659L7.2672 2.70326L0.5 9.48076L0.7957 12.0979L3.3592 13.5949C3.4735 13.3195 3.6202 13.0573 3.7966 12.8131C5.4506 11.0044 8.6595 9.58446 9.5781 9.28996C9.762 9.23116 9.8666 9.20156 9.8666 9.20156C5.4727 14.593 5.9724 20.7695 6.1682 22.2418C5.9645 22.2792 5.807 22.5124 5.807 22.7968C5.807 23.1067 5.9937 23.3582 6.2239 23.3582H7.6367C5.287 24.2906 3.4219 26.0665 2.4485 28.2982C2.4473 28.3012 2.446 28.3042 2.4445 28.3072C2.3727 28.4728 2.3058 28.6409 2.244 28.8113V28.8165C2.2274 28.8629 2.2112 28.9093 2.1955 28.9561C2.1895 28.9729 2.1836 28.9898 2.1781 29.007C2.1639 29.0489 2.1507 29.0912 2.1386 29.1339C2.1315 29.1556 2.1248 29.1777 2.1181 29.1994C2.1054 29.2394 2.0932 29.2798 2.0814 29.3202L2.0601 29.3951C2.049 29.4325 2.0379 29.4726 2.0277 29.5115C2.0202 29.5392 2.0131 29.5665 2.006 29.5942C1.9965 29.6316 1.9866 29.669 1.9775 29.7065C1.9685 29.7439 1.9598 29.7813 1.9511 29.821C1.9424 29.8606 1.9314 29.9071 1.9219 29.9505H1.3586C1.2503 29.9482 1.1426 29.9665 1.0418 30.0042C0.941001 30.0419 0.849198 30.0984 0.771698 30.1702C0.694298 30.242 0.632798 30.3278 0.590698 30.4225C0.548698 30.5172 0.5271 30.6189 0.5271 30.7216C0.5271 30.8243 0.548698 30.926 0.590698 31.0207C0.632798 31.1154 0.694298 31.2011 0.771698 31.273C0.849198 31.3448 0.941001 31.4012 1.0418 31.439C1.1426 31.4767 1.2503 31.495 1.3586 31.4927H21.3234C21.4318 31.495 21.5395 31.4767 21.6402 31.439C21.741 31.4012 21.8328 31.3448 21.9103 31.273C21.9877 31.2011 22.0493 31.1154 22.0913 31.0207C22.1333 30.926 22.1549 30.8243 22.1549 30.7216C22.1549 30.6189 22.1333 30.5172 22.0913 30.4225C22.0493 30.3278 21.9877 30.242 21.9103 30.1702C21.8328 30.0984 21.741 30.0419 21.6402 30.0042C21.5395 29.9665 21.4318 29.9482 21.3234 29.9505L21.3163 29.9437Z" fill="#595653"/>
<path d="M44.704 29.9437H44.141C44.141 29.9377 44.138 29.9318 44.137 29.9261L44.121 29.8573C44.111 29.812 44.101 29.7671 44.09 29.7226C44.085 29.7016 44.08 29.6806 44.075 29.6597C44.06 29.6009 44.045 29.5422 44.029 29.4834L44.024 29.4666C44.007 29.4029 43.989 29.3396 43.97 29.2765L43.951 29.2155C43.938 29.172 43.924 29.129 43.911 29.086C43.904 29.0624 43.896 29.0392 43.888 29.016C43.875 28.9744 43.86 28.9329 43.846 28.8917C43.838 28.87 43.83 28.8479 43.823 28.8266C43.804 28.775 43.785 28.7237 43.766 28.6728C43.762 28.6619 43.758 28.6515 43.754 28.6406C43.731 28.5807 43.707 28.5212 43.682 28.4617C43.674 28.44 43.665 28.4187 43.655 28.3974C43.639 28.3599 43.622 28.3188 43.605 28.2798L43.573 28.2076C43.557 28.1702 43.54 28.1328 43.522 28.0953C43.512 28.0721 43.501 28.0486 43.49 28.0254C43.47 27.9823 43.45 27.9397 43.428 27.8974C43.419 27.8813 43.412 27.8648 43.404 27.8483C43.376 27.7926 43.347 27.7361 43.318 27.6822L43.278 27.6122L43.222 27.5108L43.179 27.4359C43.161 27.4045 43.143 27.373 43.124 27.3416C43.11 27.3162 43.095 27.2907 43.08 27.2668C43.059 27.2327 43.04 27.1994 43.018 27.1657L42.961 27.0744C42.934 27.0325 42.907 26.9902 42.879 26.9487C42.862 26.9225 42.845 26.8966 42.827 26.8708C42.809 26.845 42.79 26.8154 42.771 26.7881C42.752 26.7608 42.731 26.7335 42.714 26.7065C42.697 26.6796 42.678 26.6553 42.659 26.6317C42.641 26.6081 42.62 26.5767 42.6 26.5493L42.544 26.4745C42.504 26.4247 42.468 26.3749 42.429 26.3248L42.375 26.2563C42.352 26.2275 42.329 26.199 42.305 26.1706L42.253 26.1077C42.229 26.0789 42.205 26.0505 42.18 26.0217L42.129 25.9625L42.052 25.8757L42.007 25.8256C41.913 25.7219 41.816 25.6197 41.717 25.5202L41.673 25.4764L41.583 25.3877L41.538 25.345C41.506 25.3147 41.475 25.2848 41.443 25.2552L41.41 25.2253C41.298 25.1224 41.184 25.0221 41.067 24.9259L41.035 24.8993C40.999 24.8694 40.962 24.8398 40.926 24.8106L40.889 24.7814C40.85 24.7515 40.814 24.7219 40.776 24.6923L40.756 24.6777C40.627 24.5789 40.495 24.4828 40.362 24.3903L40.343 24.3772C40.301 24.3484 40.259 24.32 40.216 24.2919L40.188 24.2736C40.145 24.2447 40.101 24.2167 40.057 24.1886L40.049 24.1841C39.904 24.0921 39.756 24.0039 39.605 23.9195L39.599 23.9158C39.552 23.8892 39.504 23.8634 39.456 23.8376L39.435 23.8263C39.181 23.6904 38.92 23.5656 38.652 23.4521L38.635 23.445C38.565 23.415 38.494 23.3862 38.422 23.3578H39.835C40.065 23.3578 40.252 23.1067 40.252 22.7964C40.252 22.4862 40.065 22.2351 39.835 22.2351H39.414C39.44 22.1722 39.469 22.1011 39.5 22.021C39.898 21.786 40.598 21.2852 41.293 20.3653L41.298 20.3582C41.351 20.2894 41.403 20.2181 41.454 20.1445L41.464 20.1299C41.514 20.0577 41.565 19.9832 41.615 19.9054L41.628 19.8848C41.652 19.8474 41.675 19.81 41.699 19.7725C41.699 19.7725 41.699 19.7695 41.702 19.7677C41.726 19.7302 41.75 19.6891 41.774 19.649L41.79 19.6232C41.81 19.5888 41.831 19.5536 41.851 19.5181C41.855 19.5117 41.859 19.5053 41.863 19.4986C41.886 19.4582 41.909 19.417 41.932 19.3755L41.948 19.3466C41.967 19.3122 41.986 19.2774 42.004 19.2422C42.01 19.2325 42.015 19.2224 42.02 19.2123C42.043 19.17 42.065 19.1273 42.087 19.0839L42.102 19.0536C42.12 19.0184 42.137 18.9825 42.155 18.9466L42.174 18.9092C42.195 18.865 42.216 18.8201 42.237 18.7748L42.25 18.746C42.267 18.7086 42.284 18.6711 42.301 18.6337L42.321 18.5888C42.341 18.5435 42.361 18.4979 42.38 18.4518C42.383 18.4436 42.387 18.435 42.39 18.4268C42.408 18.3845 42.425 18.3414 42.442 18.298L42.462 18.2486C42.478 18.2074 42.495 18.1659 42.51 18.1244L42.522 18.0929C42.541 18.0435 42.559 17.993 42.577 17.9432L42.596 17.8901C42.61 17.8504 42.624 17.81 42.638 17.7696C42.643 17.7546 42.648 17.7396 42.653 17.7247C42.67 17.673 42.688 17.6203 42.705 17.5675C42.71 17.5492 42.716 17.5301 42.721 17.5128L42.761 17.3897C42.766 17.3718 42.772 17.3523 42.777 17.3362C42.793 17.2819 42.809 17.2266 42.825 17.1708C42.83 17.1532 42.834 17.1352 42.839 17.1173C42.851 17.0742 42.863 17.0312 42.874 16.9874C42.879 16.9676 42.885 16.9477 42.89 16.9279C42.905 16.8703 42.919 16.8123 42.933 16.7535L42.945 16.7045C42.956 16.6577 42.967 16.6105 42.978 16.563L42.992 16.4994C43.006 16.4384 43.019 16.3774 43.032 16.3153C43.035 16.3033 43.037 16.2909 43.039 16.2778C43.05 16.2243 43.061 16.1701 43.071 16.1158C43.076 16.0937 43.08 16.0716 43.084 16.0496C43.094 15.9938 43.104 15.9373 43.114 15.8815C43.116 15.8695 43.118 15.8579 43.12 15.8463C43.131 15.7805 43.142 15.7141 43.153 15.6472C43.156 15.6248 43.16 15.6023 43.163 15.5795C43.171 15.5252 43.179 15.4706 43.187 15.4152L43.194 15.3643C43.203 15.2955 43.213 15.2262 43.221 15.1559C43.224 15.1338 43.226 15.1117 43.229 15.0892C43.236 15.0334 43.242 14.9772 43.248 14.9208C43.25 14.9006 43.253 14.8808 43.255 14.8606C43.262 14.7882 43.27 14.7153 43.276 14.6417C43.276 14.6211 43.28 14.6005 43.281 14.5795C43.286 14.5204 43.292 14.4609 43.296 14.401C43.296 14.3789 43.299 14.3569 43.301 14.3348C43.307 14.2584 43.312 14.1816 43.316 14.1042C43.316 14.0867 43.316 14.0668 43.319 14.0511C43.323 13.9867 43.326 13.922 43.329 13.8569C43.329 13.8333 43.329 13.8097 43.332 13.7861C43.335 13.7057 43.338 13.6248 43.341 13.5429C43.341 13.5316 43.341 13.52 43.341 13.5084C43.343 13.4356 43.345 13.362 43.346 13.2876C43.346 13.2633 43.346 13.239 43.346 13.2147C43.346 13.1348 43.346 13.0545 43.346 12.9737V12.9549C43.346 12.8689 43.346 12.7817 43.346 12.693V12.6181C43.346 12.5433 43.342 12.4647 43.34 12.3868V12.3445C43.338 12.2547 43.334 12.1638 43.331 12.0725C43.331 12.0489 43.328 12.0249 43.327 12.0014C43.324 11.9245 43.32 11.8472 43.316 11.7693C43.316 11.7502 43.316 11.7319 43.312 11.7113C43.307 11.6178 43.301 11.5235 43.294 11.4284L43.29 11.3622C43.284 11.2828 43.278 11.2031 43.271 11.1226C43.271 11.0994 43.267 11.0762 43.265 11.053C43.257 10.9557 43.248 10.8573 43.239 10.7585C43.239 10.7398 43.235 10.7211 43.233 10.702C43.225 10.6178 43.216 10.5328 43.207 10.4471C43.204 10.4213 43.201 10.3959 43.198 10.37C43.187 10.2682 43.175 10.1661 43.162 10.0624C43.162 10.0497 43.159 10.037 43.157 10.025C43.146 9.93216 43.134 9.83886 43.121 9.74506C43.117 9.71736 43.114 9.68966 43.11 9.66196C43.095 9.55566 43.08 9.44846 43.065 9.34046C41.486 -1.31574 30.296 0.413659 30.296 0.413659L30.654 2.70326L23.8872 9.48076L24.1829 12.0979L26.7464 13.5949C26.8607 13.3195 27.0074 13.0573 27.1838 12.8131C28.838 11.0044 32.047 9.58446 32.965 9.28996C33.149 9.23116 33.254 9.20156 33.254 9.20156C28.86 14.593 29.36 20.7695 29.555 22.2418C29.352 22.2792 29.194 22.5124 29.194 22.7968C29.194 23.1067 29.381 23.3582 29.611 23.3582H31.024C28.674 24.2906 26.8091 26.0665 25.8357 28.2982C25.8345 28.3012 25.8332 28.3042 25.8317 28.3072C25.7599 28.4728 25.6931 28.6409 25.6312 28.8113V28.8165C25.6146 28.8629 25.5984 28.9093 25.5827 28.9561C25.5767 28.9729 25.5708 28.9898 25.5653 29.007C25.5511 29.0489 25.5379 29.0912 25.5258 29.1339C25.5187 29.1556 25.512 29.1777 25.5053 29.1994C25.4927 29.2394 25.4804 29.2798 25.4686 29.3202L25.4473 29.3951C25.4362 29.4325 25.4252 29.4726 25.4149 29.5115C25.4074 29.5392 25.4003 29.5665 25.3932 29.5942C25.3837 29.6316 25.3738 29.669 25.3648 29.7065C25.3557 29.7439 25.347 29.7813 25.3383 29.821C25.3296 29.8606 25.3186 29.9071 25.3091 29.9505H24.7458C24.6375 29.9482 24.5298 29.9665 24.429 30.0042C24.3282 30.0419 24.2364 30.0984 24.159 30.1702C24.0815 30.242 24.02 30.3278 23.9779 30.4225C23.9359 30.5172 23.9143 30.6189 23.9143 30.7216C23.9143 30.8243 23.9359 30.926 23.9779 31.0207C24.02 31.1154 24.0815 31.2011 24.159 31.273C24.2364 31.3448 24.3282 31.4012 24.429 31.439C24.5298 31.4767 24.6375 31.495 24.7458 31.4927H44.711C44.819 31.495 44.927 31.4767 45.027 31.439C45.128 31.4012 45.22 31.3448 45.297 31.273C45.375 31.2011 45.436 31.1154 45.478 31.0207C45.52 30.926 45.542 30.8243 45.542 30.7216C45.542 30.6189 45.52 30.5172 45.478 30.4225C45.436 30.3278 45.375 30.242 45.297 30.1702C45.22 30.0984 45.128 30.0419 45.027 30.0042C44.927 29.9665 44.819 29.9482 44.711 29.9505L44.704 29.9437Z" fill="#595653"/>
<path d="M91.4781 29.9437H90.9161C90.9161 29.9377 90.9131 29.9318 90.9121 29.9261L90.8961 29.8573C90.8861 29.812 90.8761 29.7671 90.8651 29.7226C90.8601 29.7016 90.8551 29.6806 90.8501 29.6597C90.8351 29.6009 90.8201 29.5422 90.8041 29.4834L90.7991 29.4666C90.7821 29.4029 90.7641 29.3396 90.7451 29.2765L90.7261 29.2155C90.7131 29.172 90.6991 29.129 90.6861 29.086C90.6791 29.0624 90.6711 29.0392 90.6631 29.016C90.6491 28.9744 90.6351 28.9329 90.6211 28.8917C90.6131 28.87 90.6051 28.8479 90.5981 28.8266C90.5791 28.775 90.5601 28.7237 90.5411 28.6728C90.5371 28.6619 90.5331 28.6515 90.5291 28.6406C90.5061 28.5807 90.4821 28.5212 90.4571 28.4617C90.4491 28.44 90.4391 28.4187 90.4301 28.3974C90.4141 28.3599 90.3971 28.3188 90.3801 28.2798L90.3481 28.2076C90.3321 28.1702 90.3151 28.1328 90.2971 28.0953C90.2871 28.0721 90.2761 28.0486 90.2651 28.0254C90.2441 27.9823 90.2251 27.9397 90.2031 27.8974C90.1941 27.8813 90.1871 27.8648 90.1791 27.8483C90.1501 27.7926 90.1221 27.7361 90.0921 27.6822L90.0531 27.6122L89.9971 27.5108L89.9541 27.4359C89.9361 27.4045 89.9181 27.373 89.8991 27.3416C89.8841 27.3162 89.8691 27.2907 89.8541 27.2668C89.8341 27.2327 89.8151 27.1994 89.7921 27.1657L89.7361 27.0744C89.7091 27.0325 89.6821 26.9902 89.6541 26.9487C89.6371 26.9225 89.6201 26.8966 89.6021 26.8708C89.5841 26.845 89.5651 26.8154 89.5461 26.7881C89.5271 26.7608 89.5061 26.7335 89.4891 26.7065C89.4721 26.6796 89.4531 26.6553 89.4341 26.6317C89.4151 26.6081 89.3951 26.5767 89.3741 26.5493L89.3191 26.4745C89.2791 26.4247 89.2431 26.3749 89.2041 26.3248L89.1501 26.2563C89.1271 26.2275 89.1041 26.199 89.0801 26.1706L89.0281 26.1077C89.0041 26.0789 88.9801 26.0505 88.9551 26.0217L88.9041 25.9625L88.8271 25.8757L88.7821 25.8256C88.6881 25.7219 88.5911 25.6197 88.4921 25.5202L88.4481 25.4764L88.3581 25.3877L88.3131 25.345C88.2811 25.3147 88.2501 25.2848 88.2181 25.2552L88.1851 25.2253C88.0731 25.1224 87.9581 25.0221 87.8421 24.9259L87.8101 24.8993C87.7741 24.8694 87.7371 24.8398 87.7011 24.8106L87.6641 24.7814C87.6251 24.7515 87.5891 24.7219 87.5511 24.6923L87.5311 24.6777C87.4021 24.5789 87.2701 24.4828 87.1371 24.3903L87.1181 24.3772C87.0761 24.3484 87.0341 24.32 86.9911 24.2919L86.9631 24.2736C86.9191 24.2447 86.8761 24.2167 86.8321 24.1886L86.8241 24.1841C86.6791 24.0921 86.5311 24.0039 86.3801 23.9195L86.3741 23.9158C86.3271 23.8892 86.2791 23.8634 86.2311 23.8376L86.2101 23.8263C85.9561 23.6904 85.6951 23.5656 85.4271 23.4521L85.4101 23.445C85.3401 23.415 85.2691 23.3862 85.1971 23.3578H86.6101C86.8401 23.3578 87.0261 23.1067 87.0261 22.7964C87.0261 22.4862 86.8401 22.2351 86.6101 22.2351H86.1891C86.2151 22.1722 86.2441 22.1011 86.2751 22.021C86.6731 21.786 87.3731 21.2852 88.0681 20.3653L88.0731 20.3582C88.1261 20.2894 88.1781 20.2181 88.2281 20.1445L88.2391 20.1299C88.2891 20.0577 88.3401 19.9832 88.3901 19.9054L88.4031 19.8848C88.4271 19.8474 88.4501 19.81 88.4741 19.7725C88.4741 19.7725 88.4741 19.7695 88.4771 19.7677C88.5011 19.7302 88.5251 19.6891 88.5491 19.649L88.5651 19.6232C88.5851 19.5888 88.6061 19.5536 88.6261 19.5181C88.6301 19.5117 88.6341 19.5053 88.6381 19.4986C88.6611 19.4582 88.6841 19.417 88.7071 19.3755L88.7231 19.3466C88.7421 19.3122 88.7611 19.2774 88.7791 19.2422C88.7851 19.2325 88.7901 19.2224 88.7951 19.2123C88.8171 19.17 88.8401 19.1273 88.8621 19.0839L88.8771 19.0536C88.8941 19.0184 88.9121 18.9825 88.9301 18.9466L88.9481 18.9092C88.9701 18.865 88.9911 18.8201 89.0121 18.7748L89.0251 18.746C89.0421 18.7086 89.0591 18.6711 89.0761 18.6337L89.0961 18.5888C89.1161 18.5435 89.1361 18.4979 89.1551 18.4518C89.1581 18.4436 89.1621 18.435 89.1651 18.4268C89.1831 18.3845 89.2001 18.3414 89.2171 18.298L89.2371 18.2486C89.2531 18.2074 89.2691 18.1659 89.2851 18.1244L89.2971 18.0929C89.3161 18.0435 89.3341 17.993 89.3521 17.9432L89.3711 17.8901C89.3851 17.8504 89.3991 17.81 89.4131 17.7696C89.4181 17.7546 89.4231 17.7396 89.4281 17.7247C89.4451 17.673 89.4621 17.6203 89.4791 17.5675C89.4851 17.5492 89.4911 17.5301 89.4961 17.5128L89.5361 17.3897C89.5411 17.3718 89.5471 17.3523 89.5521 17.3362C89.5681 17.2819 89.5841 17.2266 89.5991 17.1708C89.6051 17.1532 89.6091 17.1352 89.6141 17.1173C89.6261 17.0742 89.6381 17.0312 89.6491 16.9874C89.6541 16.9676 89.6591 16.9477 89.6651 16.9279C89.6801 16.8703 89.6941 16.8123 89.7081 16.7535L89.7201 16.7045C89.7311 16.6577 89.7421 16.6105 89.7531 16.563L89.7671 16.4994C89.7811 16.4384 89.7941 16.3774 89.8071 16.3153C89.8091 16.3033 89.8121 16.2909 89.8141 16.2778C89.8251 16.2243 89.8361 16.1701 89.8461 16.1158C89.8501 16.0937 89.8541 16.0716 89.8591 16.0496C89.8691 15.9938 89.8791 15.9373 89.8891 15.8815C89.8911 15.8695 89.8931 15.8579 89.8951 15.8463C89.9061 15.7805 89.9171 15.7141 89.9271 15.6472C89.9311 15.6248 89.9351 15.6023 89.9381 15.5795C89.9461 15.5252 89.9541 15.4706 89.9621 15.4152L89.9691 15.3643C89.9781 15.2955 89.9871 15.2262 89.9961 15.1559C89.9991 15.1338 90.0011 15.1117 90.0041 15.0892C90.0111 15.0334 90.0171 14.9772 90.0231 14.9208C90.0251 14.9006 90.0281 14.8808 90.0301 14.8606C90.0371 14.7882 90.0441 14.7153 90.0511 14.6417C90.0511 14.6211 90.0551 14.6005 90.0561 14.5795C90.0611 14.5204 90.0661 14.4609 90.0711 14.401C90.0711 14.3789 90.0741 14.3569 90.0761 14.3348C90.0811 14.2584 90.0871 14.1816 90.0911 14.1042C90.0911 14.0867 90.0911 14.0668 90.0941 14.0511C90.0981 13.9867 90.1011 13.922 90.1041 13.8569C90.1041 13.8333 90.1041 13.8097 90.1071 13.7861C90.1101 13.7057 90.1131 13.6248 90.1161 13.5429C90.1161 13.5316 90.1161 13.52 90.1161 13.5084C90.1181 13.4356 90.1191 13.362 90.1201 13.2876C90.1201 13.2633 90.1201 13.239 90.1201 13.2147C90.1201 13.1348 90.1201 13.0545 90.1201 12.9737V12.9549C90.1201 12.8689 90.1201 12.7817 90.1201 12.693V12.6181C90.1201 12.5433 90.1171 12.4647 90.1151 12.3868V12.3445C90.1131 12.2547 90.1091 12.1638 90.1051 12.0725C90.1051 12.0489 90.1031 12.0249 90.1021 12.0014C90.0991 11.9245 90.0951 11.8472 90.0901 11.7693C90.0901 11.7502 90.0901 11.7319 90.0871 11.7113C90.0821 11.6178 90.0761 11.5235 90.0691 11.4284L90.0641 11.3622C90.0591 11.2828 90.0531 11.2031 90.0461 11.1226C90.0461 11.0994 90.0421 11.0762 90.0401 11.053C90.0321 10.9557 90.0231 10.8573 90.0141 10.7585C90.0141 10.7398 90.0101 10.7211 90.0081 10.702C90.0001 10.6178 89.9911 10.5328 89.9821 10.4471C89.9791 10.4213 89.9761 10.3959 89.9731 10.37C89.9621 10.2682 89.9501 10.1661 89.9371 10.0624C89.9371 10.0497 89.9341 10.037 89.9321 10.025C89.9211 9.93216 89.9091 9.83886 89.8961 9.74506C89.8921 9.71736 89.8891 9.68966 89.8851 9.66196C89.8701 9.55566 89.8551 9.44846 89.8391 9.34046C88.2601 -1.31574 77.0711 0.413659 77.0711 0.413659L77.4291 2.70326L70.6621 9.48076L70.9581 12.0979L73.5211 13.5949C73.6361 13.3195 73.7821 13.0573 73.9591 12.8131C75.6131 11.0044 78.8221 9.58446 79.7401 9.28996C79.9241 9.23116 80.0291 9.20156 80.0291 9.20156C75.6351 14.593 76.1351 20.7695 76.3301 22.2418C76.1271 22.2792 75.9691 22.5124 75.9691 22.7968C75.9691 23.1067 76.1561 23.3582 76.3861 23.3582H77.7991C75.4491 24.2906 73.5841 26.0665 72.6111 28.2982C72.6091 28.3012 72.6081 28.3042 72.6071 28.3072C72.5351 28.4728 72.4681 28.6409 72.4061 28.8113V28.8165C72.3901 28.8629 72.3731 28.9093 72.3581 28.9561C72.3521 28.9729 72.3461 28.9898 72.3401 29.007C72.3261 29.0489 72.3131 29.0912 72.3011 29.1339C72.2941 29.1556 72.2871 29.1777 72.2801 29.1994C72.2681 29.2394 72.2551 29.2798 72.2431 29.3202L72.2221 29.3951C72.2111 29.4325 72.2001 29.4726 72.1901 29.5115C72.1821 29.5392 72.1751 29.5665 72.1681 29.5942C72.1591 29.6316 72.1491 29.669 72.1401 29.7065C72.1311 29.7439 72.1221 29.7813 72.1131 29.821C72.1051 29.8606 72.0931 29.9071 72.0841 29.9505H71.5211C71.4121 29.9482 71.3051 29.9665 71.2041 30.0042C71.1031 30.0419 71.0111 30.0984 70.9341 30.1702C70.8561 30.242 70.7951 30.3278 70.7531 30.4225C70.7111 30.5172 70.6891 30.6189 70.6891 30.7216C70.6891 30.8243 70.7111 30.926 70.7531 31.0207C70.7951 31.1154 70.8561 31.2011 70.9341 31.273C71.0111 31.3448 71.1031 31.4012 71.2041 31.439C71.3051 31.4767 71.4121 31.495 71.5211 31.4927H91.4861C91.5941 31.495 91.7021 31.4767 91.8021 31.439C91.9031 31.4012 91.9951 31.3448 92.0721 31.273C92.1501 31.2011 92.2111 31.1154 92.2531 31.0207C92.2951 30.926 92.3171 30.8243 92.3171 30.7216C92.3171 30.6189 92.2951 30.5172 92.2531 30.4225C92.2111 30.3278 92.1501 30.242 92.0721 30.1702C91.9951 30.0984 91.9031 30.0419 91.8021 30.0042C91.7021 29.9665 91.5941 29.9482 91.4861 29.9505L91.4781 29.9437Z" fill="#595653"/>
<path d="M68.0909 29.9437H67.5279C67.5279 29.9377 67.5259 29.9318 67.5239 29.9261L67.5089 29.8573C67.4989 29.812 67.4879 29.7671 67.4769 29.7226C67.4729 29.7016 67.4679 29.6806 67.4619 29.6597C67.4479 29.6009 67.4319 29.5422 67.4169 29.4834L67.4119 29.4666C67.3939 29.4029 67.3759 29.3396 67.3569 29.2765L67.3379 29.2155C67.3249 29.172 67.3119 29.129 67.2989 29.086C67.2909 29.0624 67.2839 29.0392 67.2759 29.016C67.2619 28.9744 67.2479 28.9329 67.2329 28.8917C67.2259 28.87 67.2179 28.8479 67.2109 28.8266C67.1919 28.775 67.1729 28.7237 67.1539 28.6728C67.1489 28.6619 67.1459 28.6515 67.1409 28.6406C67.1189 28.5807 67.0939 28.5212 67.0699 28.4617C67.0609 28.44 67.0519 28.4187 67.0429 28.3974C67.0269 28.3599 67.0099 28.3188 66.9929 28.2798L66.9609 28.2076C66.9439 28.1702 66.9279 28.1328 66.9099 28.0953C66.8989 28.0721 66.8879 28.0486 66.8769 28.0254C66.8569 27.9823 66.8379 27.9397 66.8149 27.8974C66.8069 27.8813 66.7999 27.8648 66.7909 27.8483C66.7629 27.7926 66.7339 27.7361 66.7049 27.6822L66.6659 27.6122L66.6099 27.5108L66.5669 27.4359C66.5489 27.4045 66.5299 27.373 66.5119 27.3416C66.4969 27.3162 66.4819 27.2907 66.4669 27.2668C66.4469 27.2327 66.4279 27.1994 66.4049 27.1657L66.3479 27.0744C66.3219 27.0325 66.2949 26.9902 66.2669 26.9487C66.2499 26.9225 66.2319 26.8966 66.2149 26.8708C66.1969 26.845 66.1769 26.8154 66.1589 26.7881C66.1399 26.7608 66.1189 26.7335 66.1019 26.7065C66.0839 26.6796 66.0649 26.6553 66.0469 26.6317C66.0279 26.6081 66.0069 26.5767 65.9869 26.5493L65.9319 26.4745C65.8919 26.4247 65.8559 26.3749 65.8169 26.3248L65.7629 26.2563C65.7399 26.2275 65.7159 26.199 65.6929 26.1706L65.6409 26.1077C65.6169 26.0789 65.5919 26.0505 65.5679 26.0217L65.5169 25.9625L65.4399 25.8757L65.3949 25.8256C65.2999 25.7219 65.2039 25.6197 65.1049 25.5202L65.0609 25.4764L64.9699 25.3877L64.9259 25.345C64.8939 25.3147 64.8629 25.2848 64.8309 25.2552L64.7979 25.2253C64.6859 25.1224 64.5709 25.0221 64.4539 24.9259L64.4219 24.8993C64.3859 24.8694 64.3499 24.8398 64.3129 24.8106L64.2769 24.7814C64.2379 24.7515 64.2019 24.7219 64.1629 24.6923L64.1439 24.6777C64.0149 24.5789 63.8829 24.4828 63.7489 24.3903L63.7309 24.3772C63.6889 24.3484 63.6459 24.32 63.6039 24.2919L63.5759 24.2736C63.5319 24.2447 63.4879 24.2167 63.4449 24.1886L63.4369 24.1841C63.2919 24.0921 63.1439 24.0039 62.9929 23.9195L62.9869 23.9158C62.9389 23.8892 62.8919 23.8634 62.8439 23.8376L62.8229 23.8263C62.5689 23.6904 62.3079 23.5656 62.0399 23.4521L62.0229 23.445C61.9519 23.415 61.8809 23.3862 61.8099 23.3578H63.2219C63.4529 23.3578 63.6389 23.1067 63.6389 22.7964C63.6389 22.4862 63.4529 22.2351 63.2219 22.2351H62.8019C62.8279 22.1722 62.8559 22.1011 62.8879 22.021C63.2859 21.786 63.9859 21.2852 64.6809 20.3653L64.6859 20.3582C64.7389 20.2894 64.7899 20.2181 64.8409 20.1445L64.8519 20.1299C64.9019 20.0577 64.9529 19.9832 65.0019 19.9054L65.0159 19.8848C65.0389 19.8474 65.0629 19.81 65.0869 19.7725C65.0869 19.7725 65.0869 19.7695 65.0899 19.7677C65.1139 19.7302 65.1379 19.6891 65.1619 19.649L65.1779 19.6232C65.1979 19.5888 65.2189 19.5536 65.2389 19.5181C65.2429 19.5117 65.2469 19.5053 65.2509 19.4986C65.2739 19.4582 65.2969 19.417 65.3199 19.3755L65.3359 19.3466C65.3549 19.3122 65.3729 19.2774 65.3919 19.2422C65.3969 19.2325 65.4029 19.2224 65.4079 19.2123C65.4299 19.17 65.4519 19.1273 65.4739 19.0839L65.4899 19.0536C65.5069 19.0184 65.5249 18.9825 65.5419 18.9466L65.5609 18.9092C65.5829 18.865 65.6039 18.8201 65.6239 18.7748L65.6369 18.746C65.6549 18.7086 65.6719 18.6711 65.6889 18.6337L65.7089 18.5888C65.7289 18.5435 65.7479 18.4979 65.7669 18.4518C65.7709 18.4436 65.7739 18.435 65.7779 18.4268C65.7949 18.3845 65.8129 18.3414 65.8299 18.298L65.8499 18.2486C65.8659 18.2074 65.8819 18.1659 65.8979 18.1244L65.9099 18.0929C65.9279 18.0435 65.9469 17.993 65.9649 17.9432L65.9839 17.8901C65.9979 17.8504 66.0119 17.81 66.0259 17.7696C66.0309 17.7546 66.0359 17.7396 66.0409 17.7247C66.0579 17.673 66.0749 17.6203 66.0919 17.5675C66.0979 17.5492 66.1039 17.5301 66.1089 17.5128L66.1489 17.3897C66.1539 17.3718 66.1589 17.3523 66.1639 17.3362C66.1809 17.2819 66.1969 17.2266 66.2119 17.1708C66.2169 17.1532 66.2219 17.1352 66.2269 17.1173C66.2389 17.0742 66.2509 17.0312 66.2619 16.9874C66.2669 16.9676 66.2719 16.9477 66.2779 16.9279C66.2919 16.8703 66.3069 16.8123 66.3209 16.7535L66.3329 16.7045C66.3439 16.6577 66.3549 16.6105 66.3659 16.563L66.3799 16.4994C66.3929 16.4384 66.4069 16.3774 66.4189 16.3153C66.4219 16.3033 66.4249 16.2909 66.4269 16.2778C66.4379 16.2243 66.4489 16.1701 66.4589 16.1158C66.4629 16.0937 66.4669 16.0716 66.4719 16.0496C66.4819 15.9938 66.4919 15.9373 66.5019 15.8815C66.5039 15.8695 66.5059 15.8579 66.5079 15.8463C66.5189 15.7805 66.5299 15.7141 66.5399 15.6472C66.5439 15.6248 66.5469 15.6023 66.5509 15.5795C66.5589 15.5252 66.5669 15.4706 66.5749 15.4152L66.5819 15.3643C66.5909 15.2955 66.5999 15.2262 66.6089 15.1559C66.6119 15.1338 66.6139 15.1117 66.6169 15.0892C66.6239 15.0334 66.6299 14.9772 66.6359 14.9208C66.6379 14.9006 66.6409 14.8808 66.6419 14.8606C66.6499 14.7882 66.6569 14.7153 66.6639 14.6417C66.6639 14.6211 66.6669 14.6005 66.6689 14.5795C66.6739 14.5204 66.6789 14.4609 66.6839 14.401C66.6839 14.3789 66.6869 14.3569 66.6889 14.3348C66.6939 14.2584 66.6989 14.1816 66.7039 14.1042C66.7039 14.0867 66.7039 14.0668 66.7069 14.0511C66.7099 13.9867 66.7139 13.922 66.7169 13.8569C66.7169 13.8333 66.7169 13.8097 66.7199 13.7861C66.7229 13.7057 66.7259 13.6248 66.7289 13.5429C66.7289 13.5316 66.7289 13.52 66.7289 13.5084C66.7309 13.4356 66.7319 13.362 66.7329 13.2876C66.7329 13.2633 66.7329 13.239 66.7329 13.2147C66.7329 13.1348 66.7329 13.0545 66.7329 12.9737V12.9549C66.7329 12.8689 66.7329 12.7817 66.7329 12.693V12.6181C66.7329 12.5433 66.7299 12.4647 66.7279 12.3868V12.3445C66.7249 12.2547 66.7219 12.1638 66.7179 12.0725C66.7179 12.0489 66.7159 12.0249 66.7149 12.0014C66.7119 11.9245 66.7079 11.8472 66.7029 11.7693C66.7029 11.7502 66.7029 11.7319 66.6999 11.7113C66.6949 11.6178 66.6889 11.5235 66.6819 11.4284L66.6769 11.3622C66.6709 11.2828 66.6649 11.2031 66.6589 11.1226C66.6589 11.0994 66.6549 11.0762 66.6529 11.053C66.6449 10.9557 66.6359 10.8573 66.6259 10.7585C66.6259 10.7398 66.6219 10.7211 66.6209 10.702C66.6119 10.6178 66.6029 10.5328 66.5939 10.4471C66.5919 10.4213 66.5889 10.3959 66.5859 10.37C66.5749 10.2682 66.5629 10.1661 66.5499 10.0624C66.5499 10.0497 66.5469 10.037 66.5449 10.025C66.5339 9.93216 66.5219 9.83886 66.5089 9.74506C66.5049 9.71736 66.5019 9.68966 66.4979 9.66196C66.4829 9.55566 66.4679 9.44846 66.4519 9.34046C64.8729 -1.31574 53.6839 0.413659 53.6839 0.413659L54.0419 2.70326L47.2749 9.48076L47.5709 12.0979L50.1339 13.5949C50.2479 13.3195 50.3949 13.0573 50.5709 12.8131C52.2249 11.0044 55.4339 9.58446 56.3529 9.28996C56.5369 9.23116 56.6419 9.20156 56.6419 9.20156C52.2479 14.593 52.7469 20.7695 52.9429 22.2418C52.7389 22.2792 52.5819 22.5124 52.5819 22.7968C52.5819 23.1067 52.7689 23.3582 52.9989 23.3582H54.4119C52.0619 24.2906 50.1969 26.0665 49.2229 28.2982C49.2219 28.3012 49.2209 28.3042 49.2189 28.3072C49.1479 28.4728 49.0809 28.6409 49.0189 28.8113V28.8165C49.0019 28.8629 48.9859 28.9093 48.9699 28.9561C48.9639 28.9729 48.9589 28.9898 48.9529 29.007C48.9389 29.0489 48.9259 29.0912 48.9139 29.1339C48.9059 29.1556 48.8999 29.1777 48.8929 29.1994C48.8799 29.2394 48.8679 29.2798 48.8559 29.3202L48.8349 29.3951C48.8239 29.4325 48.8129 29.4726 48.8029 29.5115C48.7949 29.5392 48.7879 29.5665 48.7809 29.5942C48.7709 29.6316 48.7619 29.669 48.7519 29.7065C48.7429 29.7439 48.7349 29.7813 48.7259 29.821C48.7169 29.8606 48.7059 29.9071 48.6969 29.9505H48.1329C48.0249 29.9482 47.9169 29.9665 47.8169 30.0042C47.7159 30.0419 47.6239 30.0984 47.5469 30.1702C47.4689 30.242 47.4079 30.3278 47.3659 30.4225C47.3239 30.5172 47.3019 30.6189 47.3019 30.7216C47.3019 30.8243 47.3239 30.926 47.3659 31.0207C47.4079 31.1154 47.4689 31.2011 47.5469 31.273C47.6239 31.3448 47.7159 31.4012 47.8169 31.439C47.9169 31.4767 48.0249 31.495 48.1329 31.4927H68.0979C68.2069 31.495 68.3139 31.4767 68.4149 31.439C68.5159 31.4012 68.6079 31.3448 68.6849 31.273C68.7629 31.2011 68.8239 31.1154 68.8659 31.0207C68.9079 30.926 68.9299 30.8243 68.9299 30.7216C68.9299 30.6189 68.9079 30.5172 68.8659 30.4225C68.8239 30.3278 68.7629 30.242 68.6849 30.1702C68.6079 30.0984 68.5159 30.0419 68.4149 30.0042C68.3139 29.9665 68.2069 29.9482 68.0979 29.9505L68.0909 29.9437Z" fill="#595653"/>
</svg>
